<svg width="256" height="256" viewBox="0 0 256 256" fill="none" xmlns="http://www.w3.org/2000/svg">
  <defs>
    <linearGradient id="bg" x1="40" y1="24" x2="216" y2="232" gradientUnits="userSpaceOnUse">
      <stop stop-color="#2E8FFF"/>
      <stop offset="1" stop-color="#0C3C91"/>
    </linearGradient>
    <linearGradient id="accent" x1="86" y1="68" x2="172" y2="172" gradientUnits="userSpaceOnUse">
      <stop stop-color="#FFFFFF"/>
      <stop offset="1" stop-color="#CDE2FF"/>
    </linearGradient>
  </defs>
  <rect x="16" y="16" width="224" height="224" rx="56" fill="url(#bg)"/>
  <circle cx="128" cy="128" r="74" fill="#FFFFFF" opacity="0.1"/>
  <path d="M86 95C86 82.2975 96.2975 72 109 72H147C159.703 72 170 82.2975 170 95V150C170 162.703 159.703 173 147 173H109C96.2975 173 86 162.703 86 150V95Z" fill="url(#accent)"/>
  <path d="M102 96C102 91.5817 105.582 88 110 88H146C150.418 88 154 91.5817 154 96V103H102V96Z" fill="#2E74E6"/>
  <rect x="111" y="115" width="34" height="7" rx="3.5" fill="#2E74E6"/>
  <rect x="111" y="130" width="26" height="7" rx="3.5" fill="#8BB7FF"/>
  <path d="M76 172C95 153 112 144 128 144C144 144 161 153 180 172" stroke="#B9D4FF" stroke-width="12" stroke-linecap="round"/>
  <path d="M72 182H184" stroke="#DCEAFF" stroke-width="8" stroke-linecap="round" opacity="0.9"/>
</svg>
