<svg width="900" height="1400" viewBox="0 0 900 1400" fill="none" xmlns="http://www.w3.org/2000/svg">
  <defs>
    <linearGradient id="bg" x1="0" y1="0" x2="900" y2="1400" gradientUnits="userSpaceOnUse">
      <stop stop-color="#07162E"/>
      <stop offset="0.45" stop-color="#0A347A"/>
      <stop offset="1" stop-color="#061A40"/>
    </linearGradient>
    <linearGradient id="screen" x1="195" y1="115" x2="705" y2="1280" gradientUnits="userSpaceOnUse">
      <stop stop-color="#FFFFFF"/>
      <stop offset="1" stop-color="#EDF5FF"/>
    </linearGradient>
    <linearGradient id="hero" x1="215" y1="205" x2="685" y2="465" gradientUnits="userSpaceOnUse">
      <stop stop-color="#1766FF"/>
      <stop offset="1" stop-color="#2D90FF"/>
    </linearGradient>
  </defs>
  <rect width="900" height="1400" fill="url(#bg)"/>
  <rect x="170" y="80" width="560" height="1240" rx="64" fill="#0A1630"/>
  <rect x="195" y="115" width="510" height="1170" rx="46" fill="url(#screen)"/>
  <rect x="360" y="128" width="180" height="26" rx="13" fill="#0A1630"/>
  <rect x="215" y="205" width="470" height="260" rx="28" fill="url(#hero)"/>
  <text x="450" y="258" text-anchor="middle" fill="#DCEBFF" font-size="18" font-family="Segoe UI, Arial, sans-serif" letter-spacing="6">MEDIATION PLATFORM</text>
  <text x="450" y="330" text-anchor="middle" fill="white" font-size="38" font-weight="700" font-family="Segoe UI, Arial, sans-serif">移动端 H5 平台</text>
  <text x="450" y="382" text-anchor="middle" fill="#EAF3FF" font-size="20" font-family="Segoe UI, Arial, sans-serif">适配手机端入口与业务导航</text>
  <rect x="255" y="510" width="390" height="76" rx="22" fill="#2F6FF1"/>
  <rect x="255" y="610" width="390" height="76" rx="22" fill="#2F6FF1"/>
  <rect x="255" y="710" width="390" height="76" rx="22" fill="#2F6FF1"/>
  <text x="450" y="558" text-anchor="middle" fill="white" font-size="24" font-weight="700" font-family="Segoe UI, Arial, sans-serif">我要申请调解</text>
  <text x="450" y="658" text-anchor="middle" fill="white" font-size="24" font-weight="700" font-family="Segoe UI, Arial, sans-serif">我要成为调解员</text>
  <text x="450" y="758" text-anchor="middle" fill="white" font-size="24" font-weight="700" font-family="Segoe UI, Arial, sans-serif">查看调解案例</text>
  <text x="450" y="885" text-anchor="middle" fill="#173A7B" font-size="30" font-weight="700" font-family="Segoe UI, Arial, sans-serif">平台优势</text>
  <rect x="235" y="940" width="190" height="150" rx="22" fill="#F8FBFF" stroke="#D7E7FF" stroke-width="2"/>
  <rect x="475" y="940" width="190" height="150" rx="22" fill="#F8FBFF" stroke="#D7E7FF" stroke-width="2"/>
  <rect x="235" y="1120" width="190" height="100" rx="22" fill="#F8FBFF" stroke="#D7E7FF" stroke-width="2"/>
  <rect x="475" y="1120" width="190" height="100" rx="22" fill="#F8FBFF" stroke="#D7E7FF" stroke-width="2"/>
  <text x="330" y="1025" text-anchor="middle" fill="#173A7B" font-size="22" font-weight="700" font-family="Segoe UI, Arial, sans-serif">快速高效</text>
  <text x="570" y="1025" text-anchor="middle" fill="#173A7B" font-size="22" font-weight="700" font-family="Segoe UI, Arial, sans-serif">严格保密</text>
  <text x="330" y="1183" text-anchor="middle" fill="#173A7B" font-size="22" font-weight="700" font-family="Segoe UI, Arial, sans-serif">专业公正</text>
  <text x="570" y="1183" text-anchor="middle" fill="#173A7B" font-size="22" font-weight="700" font-family="Segoe UI, Arial, sans-serif">移动适配</text>
</svg>
